<svg width="140" height="62" viewBox="0 0 140 62" fill="none" xmlns="http://www.w3.org/2000/svg">
<path d="M40.7959 17.4404C40.9577 14.4892 41.7603 11.7488 43.2195 9.22853C44.859 6.39203 47.1177 4.14763 49.9892 2.48913C52.8608 0.83063 55.9532 0.00292969 59.2666 0.00292969C64.2848 0.00292969 68.5999 1.81333 72.2119 5.43413C74.7132 7.94203 76.3497 10.8343 77.1181 14.1017C74.7537 13.9715 72.3861 13.9157 70.0092 13.9312C69.443 12.5207 68.5968 11.2404 67.4737 10.0841C65.2057 7.75293 62.4461 6.58733 59.195 6.58733C55.9439 6.58733 53.1501 7.72503 50.9163 10.0004C49.2706 11.6713 48.2377 13.6801 47.8021 16.0206C45.755 16.3833 43.655 16.7584 41.6981 17.2327C41.3963 17.3009 41.0977 17.3753 40.7959 17.4466" fill="#57AC35"/>
<path d="M4.94978 31.2573C7.02489 30.0731 9.13422 28.9478 11.2747 27.8876C10.9822 27.6489 10.696 27.3978 10.4191 27.1281C7.97378 24.7566 6.75111 21.8674 6.75111 18.4543C6.75111 15.0412 7.93022 12.3504 10.2884 10.044C12.6467 7.7376 15.5711 6.5844 19.0618 6.5844C23.0689 6.5844 26.5751 8.1685 29.5836 11.3429L34.3373 6.6588C32.1658 4.3214 29.9476 2.6691 27.6827 1.7081C24.9978 0.5704 22.1138 0 19.0276 0C13.1258 0 8.33467 2.0584 4.65422 6.1752C1.55244 9.6348 0 13.7051 0 18.383C0 21.7961 0.84 24.9767 2.52 27.9217C3.22311 29.1555 4.03822 30.2622 4.94978 31.2573Z" fill="#57AC35"/>
<path d="M107.331 19.7129C108.239 19.9888 109.145 20.2771 110.047 20.5685C109.963 19.9578 109.916 19.3285 109.916 18.6682C109.916 15.159 111.036 12.2698 113.27 9.9944C115.507 7.719 118.266 6.5813 121.552 6.5813C124.837 6.5813 127.562 7.7469 129.83 10.0781C132.098 12.4093 133.234 15.2551 133.234 18.6186C133.234 21.9821 132.108 24.8434 129.855 27.1498C129.501 27.5125 129.13 27.8442 128.754 28.1511C130.848 29.1896 132.91 30.2901 134.942 31.4495C138.302 27.9372 139.988 23.6778 139.988 18.6682C139.988 13.6586 138.181 9.0489 134.572 5.4281C130.957 1.8104 126.641 0 121.623 0C118.31 0 115.217 0.8277 112.346 2.4862C109.474 4.1447 107.219 6.3922 105.576 9.2256C103.94 12.0497 103.121 15.1466 103.115 18.5132C104.148 18.8077 107.328 19.7098 107.328 19.7098" fill="#57AC35"/>
<path d="M87.3847 15.1403C89.6807 15.4813 91.9643 15.8936 94.2323 16.3803V7.52365H103.074V0.889648H78.7109V7.52055H87.3847V15.1403Z" fill="#57AC35"/>
<path d="M132.546 32.268C130.369 31.4124 128.172 30.594 125.963 29.8097C124.641 30.3429 123.213 30.6126 121.673 30.6126C118.842 30.6126 116.331 29.7229 114.141 27.9466C113.198 27.1871 112.421 26.3284 111.795 25.3829C109.117 24.6575 106.422 24.0003 103.716 23.3989C104.503 26.4431 106.062 29.1866 108.401 31.6232C111.923 35.2905 116.347 37.1257 121.673 37.1257C126.287 37.1257 130.272 35.647 133.635 32.7051C133.271 32.5594 132.91 32.4106 132.546 32.268Z" fill="#4D4398"/>
<path d="M87.3848 20.5901V36.2358H94.2323V21.5635C91.955 21.1915 89.6745 20.8629 87.3848 20.5901Z" fill="#4D4398"/>
<path d="M29.0645 25.0045C28.2929 26.5266 27.3441 27.7294 26.2209 28.6222C26.1432 28.6904 26.0685 28.7679 25.9876 28.833L25.9752 28.8175C25.7823 28.9601 25.5832 29.0934 25.3778 29.2174C23.7756 30.1939 21.8094 30.6837 19.4761 30.6837C17.4943 30.6837 15.6898 30.321 14.0565 29.5987C13.2414 29.8839 12.4232 30.1722 11.6143 30.4667C9.80673 31.1177 8.01784 31.809 6.23828 32.522C7.19028 33.3621 8.2325 34.103 9.37117 34.7323C12.2552 36.3257 15.5405 37.1224 19.2209 37.1224C22.6618 37.1224 25.6609 36.3939 28.2152 34.9369C30.7725 33.4799 32.8538 31.3657 34.4623 28.5943C35.4672 26.8614 36.1547 25.0634 36.5312 23.2034C34.0392 23.7521 31.5472 24.3535 29.0676 25.0045" fill="#4D4398"/>
<path d="M76.822 19.6819C75.534 19.6385 72.65 19.5796 70.8331 19.5393C70.6464 22.5184 69.5451 25.0604 67.498 27.156C65.2456 29.4624 62.5171 30.6156 59.3158 30.6156C56.4847 30.6156 53.974 29.7259 51.7838 27.9496C49.5998 26.1857 48.2869 23.9134 47.7984 21.1637C45.5647 21.4985 43.3278 21.8705 41.1064 22.2828C41.7753 25.7796 43.418 28.8951 46.0407 31.6293C49.5624 35.2966 53.9864 37.1318 59.3127 37.1318C64.6389 37.1318 68.7176 35.3462 72.2829 31.7719C75.5993 28.4487 77.3633 24.4342 77.5936 19.7346C77.3353 19.7191 77.0771 19.6974 76.822 19.685" fill="#4D4398"/>
<path d="M0.426188 34.4722C10.6182 27.7483 21.8897 22.8069 33.5937 19.2915C42.4262 16.6813 51.6444 14.9267 60.8284 14.2447C76.2346 13.0419 91.8742 14.9856 106.64 19.4093C116.888 22.5124 126.753 26.7377 135.928 32.2216C136.83 32.7951 138.843 34.0134 139.773 34.6458C139.913 34.7171 139.991 34.9031 139.891 35.0426C139.82 35.1511 139.68 35.1914 139.564 35.1387C136.802 33.9483 134.061 32.7703 131.273 31.676C113.229 24.6204 94.024 19.9053 74.5951 19.3225L70.1151 19.2202C68.5502 19.2729 64.9133 19.307 63.3982 19.3628C61.7897 19.4744 59.4097 19.6263 57.8075 19.7348C51.5604 20.2649 45.0986 21.2476 38.9666 22.4907C30.2306 24.3383 21.504 26.8555 13.1226 29.9183C8.89152 31.4373 4.75997 33.1609 0.637743 34.962C0.503966 35.0209 0.345299 34.962 0.286188 34.8256C0.230188 34.6861 0.29241 34.5373 0.426188 34.4722Z" fill="white"/>
<path d="M18.9775 24.4001C24.7766 21.9976 30.7562 20.0136 36.826 18.4202V18.3086H18.9775V24.397V24.4001Z" fill="#57AC35"/>
<path d="M92.0273 56.2141C91.2607 56.2141 90.5738 56.0901 89.9665 55.8421C89.3592 55.5941 88.8714 55.2271 88.503 54.741C88.1446 54.2549 87.9555 53.6696 87.9355 52.9851H90.6534C90.6932 53.372 90.8276 53.6696 91.0566 53.8779C91.2856 54.0763 91.5843 54.1755 91.9526 54.1755C92.3309 54.1755 92.6296 54.0912 92.8486 53.9226C93.0676 53.744 93.1771 53.501 93.1771 53.1935C93.1771 52.9355 93.0875 52.7223 92.9083 52.5536C92.7391 52.385 92.5251 52.2461 92.2662 52.137C92.0173 52.0279 91.6589 51.9039 91.191 51.765C90.514 51.5567 89.9615 51.3483 89.5334 51.14C89.1053 50.9317 88.737 50.6242 88.4283 50.2175C88.1197 49.8107 87.9654 49.28 87.9654 48.6253C87.9654 47.6531 88.3188 46.8943 89.0257 46.3487C89.7325 45.7931 90.6534 45.5154 91.7883 45.5154C92.9432 45.5154 93.874 45.7931 94.5809 46.3487C95.2877 46.8943 95.666 47.6581 95.7158 48.6402H92.9531C92.9332 48.3029 92.8088 48.04 92.5798 47.8515C92.3508 47.6531 92.0571 47.5539 91.6987 47.5539C91.3901 47.5539 91.1412 47.6383 90.9521 47.8069C90.7629 47.9656 90.6683 48.1987 90.6683 48.5063C90.6683 48.8435 90.8276 49.1064 91.1462 49.2949C91.4648 49.4834 91.9626 49.6867 92.6395 49.905C93.3165 50.1331 93.8641 50.3514 94.2822 50.5597C94.7103 50.768 95.0787 51.0706 95.3873 51.4674C95.6959 51.8642 95.8502 52.3751 95.8502 53C95.8502 53.5952 95.6959 54.1359 95.3873 54.6219C95.0886 55.108 94.6506 55.4949 94.0731 55.7826C93.4957 56.0703 92.8138 56.2141 92.0273 56.2141Z" fill="black"/>
<path d="M78.5097 56.2141C77.7431 56.2141 77.0562 56.0901 76.4489 55.8421C75.8416 55.5941 75.3538 55.2271 74.9854 54.741C74.627 54.2549 74.4379 53.6696 74.418 52.9851H77.1358C77.1757 53.372 77.3101 53.6696 77.539 53.8779C77.768 54.0763 78.0667 54.1755 78.435 54.1755C78.8134 54.1755 79.112 54.0912 79.331 53.9226C79.5501 53.744 79.6596 53.501 79.6596 53.1935C79.6596 52.9355 79.57 52.7223 79.3908 52.5536C79.2215 52.385 79.0075 52.2461 78.7486 52.137C78.4998 52.0279 78.1414 51.9039 77.6734 51.765C76.9965 51.5567 76.4439 51.3483 76.0158 51.14C75.5877 50.9317 75.2194 50.6242 74.9108 50.2175C74.6021 49.8107 74.4478 49.28 74.4478 48.6253C74.4478 47.6531 74.8013 46.8943 75.5081 46.3487C76.2149 45.7931 77.1358 45.5154 78.2708 45.5154C79.4256 45.5154 80.3565 45.7931 81.0633 46.3487C81.7702 46.8943 82.1485 47.6581 82.1982 48.6402H79.4356C79.4157 48.3029 79.2912 48.04 79.0622 47.8515C78.8333 47.6531 78.5396 47.5539 78.1812 47.5539C77.8725 47.5539 77.6237 47.6383 77.4345 47.8069C77.2453 47.9656 77.1508 48.1987 77.1508 48.5063C77.1508 48.8435 77.3101 49.1064 77.6286 49.2949C77.9472 49.4834 78.445 49.6867 79.122 49.905C79.799 50.1331 80.3465 50.3514 80.7646 50.5597C81.1927 50.768 81.5611 51.0706 81.8697 51.4674C82.1783 51.8642 82.3326 52.3751 82.3326 53C82.3326 53.5952 82.1783 54.1359 81.8697 54.6219C81.571 55.108 81.133 55.4949 80.5556 55.7826C79.9782 56.0703 79.2962 56.2141 78.5097 56.2141Z" fill="black"/>
<path d="M65.9013 54.2649H61.9887L61.3615 56.1101H58.6885L62.4815 45.6643H65.4383L69.2314 56.1101H66.5285L65.9013 54.2649ZM65.2442 52.3008L63.945 48.4766L62.6607 52.3008H65.2442Z" fill="black"/>
<path d="M53.7149 49.0272C53.7149 49.6323 53.5755 50.1878 53.2968 50.6937C53.018 51.1897 52.5899 51.5915 52.0125 51.899C51.4351 52.2065 50.7183 52.3603 49.8621 52.3603H48.2792V56.1101H45.7256V45.6643H49.8621C50.6984 45.6643 51.4052 45.8081 51.9827 46.0958C52.5601 46.3835 52.9931 46.7803 53.2819 47.2862C53.5706 47.7921 53.7149 48.3725 53.7149 49.0272ZM49.668 50.3366C50.1558 50.3366 50.5192 50.2225 50.7581 49.9944C50.9971 49.7662 51.1165 49.4438 51.1165 49.0272C51.1165 48.6105 50.9971 48.2881 50.7581 48.06C50.5192 47.8318 50.1558 47.7177 49.668 47.7177H48.2792V50.3366H49.668Z" fill="black"/>
</svg>
